<svg xmlns="http://www.w3.org/2000/svg" version="1.1" xmlns:xlink="http://www.w3.org/1999/xlink" width="1000" height="1000"><style>
    #light-icon {
      display: inline;
    }
    #dark-icon {
      display: none;
    }

    @media (prefers-color-scheme: dark) {
      #light-icon {
        display: none;
      }
      #dark-icon {
        display: inline;
      }
    }
  </style><g id="light-icon"><svg xmlns="http://www.w3.org/2000/svg" version="1.1" xmlns:xlink="http://www.w3.org/1999/xlink" width="1000" height="1000"><g><g transform="matrix(41.666666666666664,0,0,41.666666666666664,0,0)"><svg xmlns="http://www.w3.org/2000/svg" version="1.1" xmlns:xlink="http://www.w3.org/1999/xlink" width="24px" height="24px"><svg width="24px" height="24px" stroke-width="1.5" viewBox="0 0 24 24" fill="none" xmlns="http://www.w3.org/2000/svg" color="#219ce5"><path d="M3 10C5.48276 10 7.34483 7 7.34483 7C7.34483 7 9.2069 10 11.6897 10C14.1724 10 16.6552 7 16.6552 7C16.6552 7 19.1379 10 21 10" stroke="#219ce5" stroke-width="1.5" stroke-linecap="round" stroke-linejoin="round"></path><path d="M3 17C5.48276 17 7.34483 14 7.34483 14C7.34483 14 9.2069 17 11.6897 17C14.1724 17 16.6552 14 16.6552 14C16.6552 14 19.1379 17 21 17" stroke="#219ce5" stroke-width="1.5" stroke-linecap="round" stroke-linejoin="round"></path></svg></svg></g></g></svg></g><g id="dark-icon"><svg xmlns="http://www.w3.org/2000/svg" version="1.1" xmlns:xlink="http://www.w3.org/1999/xlink" width="1000" height="1000"><g clip-path="url(#SvgjsClipPath1212)"><rect width="1000" height="1000" fill="#000000"></rect><g transform="matrix(29.166666666666668,0,0,29.166666666666668,150,150)"><svg xmlns="http://www.w3.org/2000/svg" version="1.1" xmlns:xlink="http://www.w3.org/1999/xlink" width="24px" height="24px"><svg width="24px" height="24px" stroke-width="1.5" viewBox="0 0 24 24" fill="none" xmlns="http://www.w3.org/2000/svg" color="#219ce5"><path d="M3 10C5.48276 10 7.34483 7 7.34483 7C7.34483 7 9.2069 10 11.6897 10C14.1724 10 16.6552 7 16.6552 7C16.6552 7 19.1379 10 21 10" stroke="#219ce5" stroke-width="1.5" stroke-linecap="round" stroke-linejoin="round"></path><path d="M3 17C5.48276 17 7.34483 14 7.34483 14C7.34483 14 9.2069 17 11.6897 17C14.1724 17 16.6552 14 16.6552 14C16.6552 14 19.1379 17 21 17" stroke="#219ce5" stroke-width="1.5" stroke-linecap="round" stroke-linejoin="round"></path></svg></svg></g></g><defs><clipPath id="SvgjsClipPath1212"><rect width="1000" height="1000" x="0" y="0" rx="500" ry="500"></rect></clipPath></defs></svg></g></svg>